<?xml version="1.0" standalone="no"?>
<!DOCTYPE svg PUBLIC "-//W3C//DTD SVG 20010904//EN"
 "http://www.w3.org/TR/2001/REC-SVG-20010904/DTD/svg10.dtd">
<svg version="1.0" xmlns="http://www.w3.org/2000/svg"
 width="2048.000000pt" height="2048.000000pt" viewBox="0 0 2048.000000 2048.000000"
 preserveAspectRatio="xMidYMid meet">

<g transform="translate(0.000000,2048.000000) scale(0.100000,-0.100000)"
fill="#000000" stroke="none">
<path d="M10665 15269 c-301 -40 -544 -181 -718 -414 -103 -138 -161 -277
-191 -454 -13 -77 -16 -181 -16 -558 l0 -464 -29 -25 c-93 -78 -79 -244 28
-319 38 -27 51 -30 116 -30 65 0 78 3 116 30 55 39 89 103 89 168 0 58 -29
127 -66 156 l-25 20 0 474 c1 385 4 488 16 546 82 391 444 670 840 648 228
-13 409 -98 567 -265 86 -93 143 -192 185 -327 l27 -90 4 -490 3 -491 -31 -28
c-113 -100 -80 -281 62 -340 97 -41 215 3 266 99 36 69 14 192 -44 240 l-24
20 -6 490 c-5 428 -8 502 -25 589 -69 346 -301 616 -650 755 -136 53 -350 80
-494 60z"/>
<path d="M7205 13051 c-141 -64 -163 -243 -42 -335 57 -44 107 -47 606 -44
l465 3 28 -95 c15 -52 27 -98 28 -102 0 -4 -334 -9 -743 -10 l-743 -3 -41 -27
c-103 -68 -120 -193 -40 -285 63 -72 14 -68 891 -68 l789 0 33 -115 c18 -63
34 -118 34 -122 0 -4 -456 -9 -1013 -10 l-1013 -3 -37 -25 c-41 -28 -72 -78
-82 -132 -14 -76 45 -180 118 -207 19 -8 363 -11 1081 -11 l1053 0 30 -105
c17 -57 28 -107 25 -110 -3 -3 -156 -5 -340 -5 l-335 0 -43 -25 c-49 -29 -94
-108 -94 -164 1 -71 59 -156 123 -180 18 -7 165 -11 412 -11 357 0 384 -1 389
-17 6 -21 105 -389 146 -545 l28 -107 -32 -20 c-18 -11 -59 -49 -93 -83 -101
-106 -143 -213 -143 -362 1 -112 11 -160 57 -256 63 -132 211 -250 351 -279
31 -6 161 -11 313 -11 l260 0 -60 -55 c-97 -91 -141 -188 -141 -316 0 -85 24
-158 75 -234 111 -162 343 -223 520 -136 169 84 263 261 234 444 -14 88 -52
160 -124 233 l-63 64 817 0 816 0 -48 -41 c-232 -199 -189 -561 84 -700 55
-28 77 -33 155 -37 114 -5 180 12 265 71 76 52 132 128 160 220 47 151 2 315
-118 433 l-55 54 194 0 c185 0 197 1 239 23 93 49 135 167 91 253 -27 51 -70
92 -113 104 -21 6 -646 10 -1713 10 -1676 0 -1680 0 -1722 21 -49 23 -84 82
-84 141 0 39 30 90 73 122 l28 21 1692 3 c1051 2 1704 7 1723 13 17 5 45 25
63 43 35 36 40 52 212 621 57 190 128 419 478 1543 100 320 151 498 151 528 0
47 -25 107 -57 136 -28 26 -104 58 -139 58 -67 0 -152 -46 -178 -98 -7 -15
-59 -175 -115 -357 -56 -181 -133 -427 -171 -545 -38 -118 -98 -309 -134 -425
-35 -115 -106 -343 -156 -505 -51 -162 -113 -363 -139 -447 -26 -83 -49 -154
-52 -157 -3 -3 -677 -8 -1498 -10 l-1492 -5 -10 22 c-5 12 -47 159 -93 327
-191 698 -366 1330 -390 1405 -13 44 -79 274 -146 510 -67 237 -128 454 -136
483 l-15 52 -647 0 c-604 0 -650 -2 -687 -19z"/>
<path d="M6305 12446 c-43 -18 -93 -79 -101 -121 -22 -118 59 -217 177 -217
101 1 172 74 172 177 0 76 -41 140 -106 164 -38 15 -105 13 -142 -3z"/>
<path d="M7468 11230 c-96 -29 -153 -143 -117 -237 13 -34 55 -80 91 -99 39
-20 112 -17 158 6 77 39 116 160 76 237 -21 41 -69 80 -114 93 -42 11 -56 11
-94 0z"/>
<path d="M7155 7496 c-252 -49 -443 -218 -522 -461 -33 -102 -38 -281 -10
-385 63 -236 255 -417 504 -476 103 -24 304 -15 401 19 115 41 171 76 258 163
68 67 90 96 127 175 101 208 101 413 0 618 -72 149 -247 289 -418 335 -84 23
-254 29 -340 12z m298 -269 c66 -30 148 -104 184 -165 105 -179 74 -416 -72
-551 -122 -112 -302 -139 -447 -65 -74 38 -153 121 -191 201 -27 58 -32 82
-35 165 -3 73 0 109 13 150 45 136 134 230 266 278 77 29 204 23 282 -13z"/>
<path d="M14348 7500 c-157 -27 -274 -86 -379 -192 -130 -130 -191 -285 -191
-478 0 -203 55 -342 187 -476 136 -137 281 -194 500 -194 159 0 272 31 393
107 55 35 152 120 152 133 0 5 -42 47 -93 94 l-94 85 -52 -50 c-129 -124 -333
-159 -483 -83 -257 130 -304 507 -88 707 71 66 145 97 246 104 114 8 213 -27
318 -112 31 -26 58 -46 60 -44 1 2 40 48 86 103 68 79 82 101 73 115 -19 30
-147 111 -223 140 -120 46 -283 63 -412 41z"/>
<path d="M4834 7474 c3 -9 6 -303 6 -655 l0 -639 505 0 505 0 0 125 0 125
-370 0 -370 0 0 150 0 150 319 0 320 0 3 116 c2 64 -1 118 -5 121 -5 3 -151 4
-325 2 l-317 -4 0 138 0 137 270 1 c149 1 313 3 365 5 l95 3 3 121 3 120 -507
0 c-457 0 -506 -2 -500 -16z"/>
<path d="M8209 7488 c0 -2 -1 -297 -2 -656 l-2 -652 127 0 128 0 2 421 3 422
158 -242 c88 -132 162 -243 167 -246 4 -2 38 42 75 98 122 184 278 397 286
391 5 -3 9 -194 9 -425 l0 -419 128 0 127 0 0 655 1 655 -127 0 -127 0 -89
-137 c-49 -76 -127 -200 -174 -275 -46 -75 -87 -137 -90 -138 -3 0 -84 124
-180 275 l-174 275 -122 0 c-68 0 -123 -1 -124 -2z"/>
<path d="M9720 6835 l0 -655 130 0 130 0 2 422 3 422 131 -200 c72 -109 141
-216 154 -237 12 -21 26 -35 30 -30 4 4 76 110 159 235 83 125 155 229 161
233 7 4 10 -134 10 -419 l0 -426 125 0 125 0 0 655 0 655 -124 0 -124 0 -162
-260 c-88 -143 -163 -260 -165 -260 -2 0 -14 17 -26 38 -13 20 -88 137 -167
260 l-144 222 -124 0 -124 0 0 -655z"/>
<path d="M11200 6835 l0 -655 510 0 510 0 0 103 c0 56 3 112 6 125 l6 22 -381
0 -381 0 0 150 0 150 325 0 325 0 2 75 c1 41 2 93 3 116 l0 41 -327 -1 -328
-2 0 140 0 141 373 2 372 3 3 123 3 122 -510 0 -511 0 0 -655z"/>
<path d="M12480 6836 l0 -656 135 0 135 0 0 220 0 220 119 0 119 0 154 -220
153 -219 163 -1 c152 0 162 1 153 18 -5 9 -79 116 -164 237 l-155 220 68 32
c125 57 199 159 221 305 29 183 -51 357 -198 431 -115 59 -128 60 -530 65
l-373 4 0 -656z m696 389 c110 -32 164 -154 115 -260 -23 -49 -43 -68 -106
-97 -45 -20 -69 -23 -242 -26 l-193 -4 0 201 0 201 188 0 c137 0 202 -4 238
-15z"/>
<path d="M6010 6790 l0 -120 240 0 240 0 0 120 0 120 -240 0 -240 0 0 -120z"/>
<path d="M7295 5692 l-40 -3 -103 -232 c-56 -128 -102 -235 -102 -239 0 -5 20
-8 44 -8 44 0 45 0 70 55 l25 55 114 0 114 0 20 -52 20 -53 52 -3 c28 -2 51
-1 51 1 0 9 -211 472 -218 477 -4 3 -25 4 -47 2z m43 -194 c18 -46 32 -86 32
-90 0 -5 -31 -8 -70 -8 -38 0 -70 3 -70 6 0 15 64 174 70 174 3 0 20 -37 38
-82z"/>
<path d="M8000 5685 c-102 -32 -170 -128 -170 -240 1 -194 192 -298 383 -208
l67 32 0 101 0 101 -82 -3 c-82 -3 -83 -3 -86 -30 -3 -28 10 -35 55 -29 13 2
28 -61 20 -82 -8 -20 -91 -41 -134 -34 -145 24 -174 222 -43 296 51 28 116 25
162 -9 l30 -22 35 33 34 34 -26 22 c-30 27 -115 53 -164 52 -20 0 -56 -7 -81
-14z"/>
<path d="M6340 5644 l0 -47 75 6 75 5 0 -199 0 -200 48 3 47 3 3 192 2 192 73
3 72 3 3 43 3 42 -200 0 -201 0 0 -46z"/>
<path d="M8608 5450 l3 -240 170 0 170 0 -3 41 -3 41 -122 -1 -123 -2 0 200 0
201 -47 0 -48 0 3 -240z"/>
<path d="M9241 5450 l-3 -240 51 0 51 0 0 240 0 240 -48 0 -47 0 -4 -240z"/>
<path d="M9690 5451 l0 -241 45 0 44 0 3 153 3 152 120 -152 c115 -146 121
-151 157 -152 l37 -1 3 240 3 240 -47 0 -47 0 -3 -145 -3 -146 -115 143 c-113
140 -117 143 -158 146 l-42 3 0 -240z"/>
<path d="M10462 5450 l-4 -240 191 0 191 0 0 40 0 40 -140 0 -140 0 0 60 0 60
126 0 125 0 -3 42 -3 43 -122 -4 -123 -3 0 56 0 56 135 0 135 0 0 45 0 45
-182 0 -183 0 -3 -240z"/>
<path d="M11420 5450 l0 -240 51 0 51 0 -4 100 -3 100 118 0 117 0 -6 -100 -7
-100 51 0 52 0 0 240 0 240 -50 0 -50 0 0 -95 0 -95 -110 0 -110 0 0 95 0 95
-50 0 -50 0 0 -240z"/>
<path d="M12200 5450 l0 -240 185 0 185 0 0 45 0 45 -140 -6 -140 -7 0 61 0
62 125 0 125 0 0 46 0 46 -122 -3 -123 -4 -3 59 -3 58 98 -3 c54 -1 117 -2
141 -1 l42 2 0 40 0 40 -185 0 -185 0 0 -240z"/>
<path d="M12900 5450 l0 -240 45 0 45 0 0 85 0 85 45 0 c51 0 63 -10 128 -107
l42 -62 53 -1 c61 0 61 -5 -12 99 -25 36 -46 67 -46 70 0 4 16 17 36 30 47 32
64 68 64 135 0 45 -5 60 -27 87 -43 51 -76 59 -233 59 l-140 0 0 -240z m285
135 c32 -31 32 -69 1 -100 -28 -27 -70 -38 -141 -33 l-50 3 -3 64 c-2 35 -1
70 2 77 4 10 27 14 86 14 73 0 83 -3 105 -25z"/>
<path d="M13640 5450 l0 -240 185 0 185 0 0 40 0 40 -140 0 -140 0 0 60 0 59
123 3 122 3 3 44 3 44 -104 -6 c-145 -8 -147 -7 -147 59 l0 54 140 0 140 0 0
40 0 40 -185 0 -185 0 0 -240z"/>
</g>
</svg>
